<?xml version="1.0" encoding="UTF-8"?>
<svg xmlns="http://www.w3.org/2000/svg" xmlns:xlink="http://www.w3.org/1999/xlink" width="250px" height="250px" version="1.1" viewBox="0 0 250 250">
<!--Generator: Sketch 52.5 (67469) - http://www.bohemiancoding.com/sketch-->
    <title>
        Zarewoft Z Logo
    </title>
    <desc>
        Created by Zarewoft
    </desc>
    <defs>
        <linearGradient id="linearGradient-1" x1="-48.381107%" x2="88.2885747%" y1="104.954217%" y2="11.1140519%">
            <stop offset="0%" stop-color="#C0DBFF"/>
            <stop offset="100%" stop-color="#FFFFFF"/>
        </linearGradient>
        <linearGradient id="linearGradient-2" x1="13.1817579%" x2="143.035341%" y1="91.126998%" y2="4.14571987%">
            <stop offset="0%" stop-color="#FFFFFF"/>
            <stop offset="100%" stop-color="#C0DBFF"/>
        </linearGradient>
    </defs>
    <g id="Page-1" fill="none" fill-rule="evenodd" stroke="none" stroke-width="1">
        <g id="Zarewoft-Branding-A" transform="translate(-563.000000, -311.000000)">
            <g id="Group" transform="translate(386.000000, 209.000000)">
                <g id="Group-4-Copy" transform="translate(301.981277, 226.981277) rotate(45.000000) translate(-301.981277, -226.981277) translate(141.481277, 66.481277)">
                    <g transform="rotate(-45 198.702723 298.336144)">
                        <path id="Fill-19" fill="url(#linearGradient-1)" d="M198.702723,298.336144 L309.374623,187.45832 C324.319549,172.48606 324.295858,148.232675 309.325421,133.287749 C294.351338,118.342824 270.097953,118.364692 255.153028,133.338774 L198.702723,189.894775 L198.702723,298.336144"/>
                        <animateTransform fill="freeze" attributeName="transform" attributeType="XML" begin="0.5" calcMode="spline" dur="0.8s" from="-45 198.702723 298.336144" keySplines="0 0 0.3 1" keyTimes="0;1" restart="whenNotActive" to="0 198.702723 298.336144" type="rotate"/>
                    </g>
                    <g transform="rotate(-45 122.091985 22.4390825)">
                        <path id="Fill-23" fill="url(#linearGradient-2)" d="M11.219628,133.313262 C-3.73987598,148.272766 -3.73987598,172.524329 11.219628,187.483832 C26.1791319,202.443336 50.4325169,202.443336 65.3901985,187.483832 L122.091985,130.780224 L122.091985,22.4390825 L11.219628,133.313262"/>
                        <animateTransform fill="freeze" attributeName="transform" attributeType="XML" begin="0.5" calcMode="spline" dur="0.8s" from="-45 122.091985 22.4390825" keySplines="0 0 0.3 1" keyTimes="0;1" restart="whenNotActive" to="0 122.091985 22.4390825" type="rotate"/>
                    </g>
                    <path id="Fill-22" fill="#FFFFFF" d="M198.702723,298.336144 L198.702723,38.3061066 C198.702723,22.8126601 189.36875,8.8463258 175.056173,2.91646518 C160.738129,-3.0115731 144.26427,0.264975571 133.312069,11.2208213 L122.091985,22.4390825 L122.091985,282.489165 C122.091985,297.989901 131.431424,311.95988 145.754935,317.886096 C150.489348,319.845101 155.458841,320.796357 160.388242,320.796357 C170.369142,320.794534 180.178742,316.892927 187.508152,309.55076 L198.702723,298.336144"/>
                </g>
            </g>
        </g>
    </g>
</svg>
